<?xml version="1.0" standalone="no"?>
<!DOCTYPE svg PUBLIC "-//W3C//DTD SVG 20010904//EN"
 "http://www.w3.org/TR/2001/REC-SVG-20010904/DTD/svg10.dtd">
<svg version="1.0" xmlns="http://www.w3.org/2000/svg"
 width="512.000000pt" height="512.000000pt" viewBox="0 0 512.000000 512.000000"
 preserveAspectRatio="xMidYMid meet">
<metadata>
Created by potrace 1.14, written by Peter Selinger 2001-2017
</metadata>
<g transform="translate(0.000000,512.000000) scale(0.100000,-0.100000)"
fill="#000000" stroke="none">
<path d="M2165 5094 c-216 -28 -399 -85 -545 -170 -90 -51 -206 -172 -252
-259 -73 -140 -138 -362 -174 -595 -26 -166 -27 -698 -1 -925 33 -285 121
-759 150 -806 19 -31 59 -34 83 -6 18 21 22 45 33 238 6 118 14 240 18 272 l6
58 38 -70 c21 -39 54 -95 73 -126 31 -48 36 -64 36 -116 0 -56 -4 -67 -45
-129 -110 -166 -211 -465 -280 -832 -32 -168 -32 -201 -1 -225 13 -10 92 -54
175 -98 125 -67 151 -84 151 -103 0 -41 34 -62 100 -62 l60 0 0 -399 c0 -398
0 -398 23 -442 13 -24 32 -87 42 -139 18 -97 29 -129 49 -142 6 -4 68 -8 137
-8 109 0 128 2 142 18 9 10 32 69 51 131 22 72 41 118 53 126 12 8 59 110 114
244 l94 231 65 0 65 0 90 -223 c50 -124 100 -233 114 -246 24 -25 33 -49 71
-178 11 -40 28 -79 36 -88 12 -12 41 -15 142 -15 70 0 132 4 138 8 20 13 31
45 49 142 10 52 27 111 39 130 20 34 21 48 24 443 l4 407 59 0 c65 0 99 21 99
62 0 19 27 37 164 110 90 48 169 94 176 103 16 19 8 101 -25 267 -71 345 -167
623 -270 778 -41 62 -45 73 -45 129 0 52 5 68 36 116 19 31 52 87 73 126 l39
71 6 -64 c3 -35 11 -155 17 -268 9 -168 14 -210 28 -230 24 -33 44 -36 74 -8
20 18 31 46 51 138 102 468 142 847 133 1250 -8 333 -40 533 -122 770 -55 158
-99 234 -185 321 -152 154 -374 244 -700 284 -160 19 -618 19 -775 -1z m-138
-1626 c55 -79 102 -148 105 -153 4 -7 -8 -9 -33 -7 -83 8 -173 -51 -212 -137
-46 -103 -9 -242 81 -306 39 -27 52 -30 115 -30 65 0 77 3 119 32 61 43 98
115 98 194 0 48 3 57 20 62 29 7 40 47 40 145 l0 87 32 -50 c63 -100 155 -212
263 -320 149 -149 219 -207 250 -207 49 0 55 15 56 146 l1 121 24 -52 c47 -99
95 -338 107 -531 l3 -63 -53 -35 c-74 -49 -184 -99 -279 -126 -107 -30 -292
-30 -407 0 -101 28 -228 88 -314 149 -85 60 -224 199 -285 285 l-47 65 -7 146
-7 146 108 295 c59 163 111 293 115 291 5 -3 53 -69 107 -147z m157 -229 c33
-39 41 -72 26 -108 -34 -84 -132 -86 -166 -4 -43 101 72 193 140 112z m-179
-965 c90 -59 208 -115 287 -135 l46 -12 32 -99 31 -99 -48 -334 -48 -335 -277
0 -278 0 0 616 0 616 85 -80 c47 -45 123 -106 170 -138z m1365 -399 l0 -615
-278 0 -277 0 -48 335 -48 335 32 98 32 98 61 18 c138 40 310 145 441 269 44
42 81 76 83 77 1 0 2 -277 2 -615z m-1744 -512 c-2 -3 -54 22 -115 54 -96 50
-111 61 -111 83 0 29 49 269 79 388 29 113 85 282 118 356 l28 61 3 -469 c1
-258 0 -471 -2 -473z m1940 770 c56 -156 154 -558 154 -633 0 -22 -15 -33
-110 -82 -60 -32 -111 -58 -114 -58 -3 0 -6 213 -6 473 l1 472 20 -39 c12 -21
36 -81 55 -133z m-1440 -1935 l-22 -73 -62 -3 c-57 -3 -62 -1 -67 20 -14 63
-25 114 -25 121 0 4 45 7 99 7 l99 0 -22 -72z m1044 65 c0 -7 -11 -58 -25
-121 -5 -21 -10 -23 -67 -20 l-62 3 -22 73 -22 72 99 0 c54 0 99 -3 99 -7z"/>
</g>
</svg>
